<?xml version="1.0" standalone="no"?>
<!DOCTYPE svg PUBLIC "-//W3C//DTD SVG 20010904//EN"
 "http://www.w3.org/TR/2001/REC-SVG-20010904/DTD/svg10.dtd">
<svg version="1.0" xmlns="http://www.w3.org/2000/svg"
 width="700.000000pt" height="700.000000pt" viewBox="0 0 700.000000 700.000000"
 preserveAspectRatio="xMidYMid meet">
<metadata>
Created by potrace 1.11, written by Peter Selinger 2001-2013
</metadata>
<g transform="translate(0.000000,700.000000) scale(0.100000,-0.100000)"
fill="#000000" stroke="none">
<path d="M0 6886 c0 -82 3 -115 12 -118 7 -2 109 -3 226 -3 183 1 213 -1 216
-15 2 -8 3 -665 2 -1460 l-1 -1445 -225 0 -225 0 -3 -121 -3 -121 596 0 595 0
1 28 c1 38 1 197 0 207 -1 4 -99 7 -219 6 -119 0 -221 1 -227 3 -7 2 -10 432
-9 1266 1 694 2 1269 3 1277 1 9 7 6 18 -10 10 -14 23 -32 30 -40 12 -15 163
-214 520 -687 250 -330 497 -657 623 -823 61 -80 214 -282 340 -450 127 -168
236 -312 243 -320 7 -8 46 -60 87 -115 41 -55 77 -102 80 -105 3 -3 54 -70
114 -150 65 -87 117 -147 130 -150 18 -4 178 -5 241 -1 20 1 20 7 20 1614 l0
1612 228 0 227 0 1 48 c1 60 1 130 0 162 l-1 25 -595 0 -595 0 0 -117 0 -118
227 0 228 0 0 -1217 c0 -670 -2 -1218 -5 -1218 -3 0 -23 26 -45 57 -22 31 -44
61 -50 67 -5 6 -50 65 -100 131 -49 66 -93 125 -98 130 -4 6 -64 84 -132 175
-68 91 -128 170 -132 175 -5 6 -65 84 -133 175 -69 91 -130 172 -137 180 -7 8
-98 130 -204 270 -106 140 -254 336 -329 435 -75 99 -208 275 -295 390 -313
413 -340 450 -355 467 -13 17 -46 18 -452 18 l-438 0 0 -114z"/>
<path d="M6028 6638 l-3 -363 -366 -1 c-201 0 -370 -3 -375 -6 -7 -5 -11 -176
-5 -208 1 -3 169 -5 374 -5 l372 0 3 -378 2 -377 33 -1 c58 -1 152 -1 167 0
14 1 16 43 15 359 0 196 1 366 3 377 3 20 10 20 378 20 l375 0 -3 109 -3 109
-375 1 -374 1 0 363 0 362 -108 0 -108 0 -2 -362z"/>
<path d="M4435 6089 c-206 -17 -458 -80 -648 -162 l-47 -21 2 -245 3 -245 103
0 c56 1 104 3 107 5 2 3 6 17 9 33 35 194 162 330 366 391 72 22 272 27 370
10 240 -42 402 -183 454 -395 16 -64 29 -310 17 -328 -3 -5 -157 -9 -341 -9
-184 -1 -364 -3 -400 -6 -476 -39 -782 -253 -856 -598 -32 -149 -20 -357 27
-486 92 -248 314 -426 591 -474 40 -6 76 -15 80 -18 4 -4 -198 -6 -448 -6
-293 0 -458 -4 -463 -10 -4 -5 -7 -62 -6 -125 l0 -115 186 0 c145 0 185 -3
182 -12 -3 -7 -8 -13 -12 -13 -3 0 -24 -17 -47 -38 -47 -43 -81 -73 -184 -162
-41 -36 -77 -68 -80 -71 -3 -3 -68 -61 -145 -128 -144 -127 -270 -238 -289
-256 -6 -5 -85 -75 -176 -155 -164 -144 -223 -196 -244 -215 -6 -6 -67 -60
-136 -120 -69 -60 -136 -120 -150 -133 l-25 -22 -3 656 c-1 362 0 659 3 662 2
3 103 5 222 6 l218 1 1 115 c0 63 -1 120 -3 125 -2 7 -235 10 -676 9 -369 -1
-676 -2 -680 -3 -4 0 -6 -56 -5 -123 l3 -123 212 -1 c117 0 216 -4 220 -8 5
-4 8 -680 8 -1502 1 -1335 -1 -1494 -15 -1495 -8 0 -108 0 -223 0 l-207 0 0
-124 0 -125 679 0 c534 0 680 3 683 13 2 6 4 62 4 122 l-1 110 -140 2 c-77 1
-177 2 -222 3 l-83 0 0 708 0 707 828 -833 827 -832 406 0 406 0 0 125 0 124
-156 0 c-86 0 -176 0 -199 1 l-44 0 -499 502 c-275 277 -652 655 -837 841
l-337 338 50 45 c73 65 91 82 180 159 44 39 82 72 85 75 3 3 46 41 95 84 50
43 123 109 164 145 41 36 83 74 95 84 35 31 149 131 160 142 6 6 45 39 86 74
41 36 80 70 85 75 6 6 44 40 85 76 41 36 80 69 86 75 6 5 42 37 79 70 38 33
73 65 79 70 6 6 47 42 91 80 l80 70 192 -1 c135 -1 193 2 195 10 3 6 4 64 3
129 l-1 117 26 1 c14 0 34 2 45 4 11 2 39 7 62 10 162 22 356 125 476 254 26
28 48 47 48 43 1 -4 2 -61 3 -127 l1 -120 393 -1 c215 0 393 2 393 5 8 34 3
224 -5 229 -6 4 -85 7 -176 8 -91 1 -170 2 -176 3 -9 1 -12 183 -13 704 0 386
-3 713 -5 727 -3 14 -10 54 -15 90 -28 178 -133 378 -253 485 -143 127 -339
206 -573 231 -84 8 -226 10 -310 3z m739 -1507 c-1 -289 -4 -324 -25 -407 -15
-57 -74 -164 -112 -205 -120 -129 -242 -182 -426 -184 -209 -2 -324 37 -437
149 -106 105 -153 228 -152 398 1 296 133 471 394 521 116 22 103 22 444 24
l315 1 -1 -297z m-844 -1047 c0 -2 -9 -3 -19 -2 -11 0 -18 5 -15 9 4 6 34 0
34 -7z"/>
<path d="M4990 3130 l0 -380 -375 0 c-350 0 -375 -1 -376 -17 -1 -21 -1 -184
0 -196 1 -4 168 -7 372 -6 204 0 372 -1 375 -3 2 -2 4 -171 4 -375 1 -281 4
-372 13 -375 7 -3 55 -4 107 -3 l95 1 1 372 c1 205 4 375 7 378 3 3 172 5 376
5 l371 -1 0 110 0 110 -377 2 -377 3 1 378 1 377 -109 0 -109 0 0 -380z"/>
</g>
</svg>
