<?xml version="1.0" encoding="UTF-8"?>
<svg width="16px" height="16px" version="1.0" viewBox="0 0 700 700" xmlns="http://www.w3.org/2000/svg" xmlns:cc="http://creativecommons.org/ns#" xmlns:dc="http://purl.org/dc/elements/1.1/" xmlns:rdf="http://www.w3.org/1999/02/22-rdf-syntax-ns#"><metadata><rdf:RDF><cc:Work rdf:about=""><dc:format>image/svg+xml</dc:format><dc:type rdf:resource="http://purl.org/dc/dcmitype/StillImage"/><dc:title/></cc:Work></rdf:RDF></metadata><path transform="scale(43.75)" d="m0 0v7.8887h1.4922v-3.7109c-0.014733-0.37569-0.034541-0.75322-0.056641-1.1289l-0.042969-1.127h0.042969l3.4375 5.9668h2.1211v-0.94922c0.088395 0.23935 0.21878 0.43826 0.39453 0.5957 0.35359 0.30939 0.80014 0.46484 1.3379 0.46484 0.50092 0 0.89435-0.073374 1.1816-0.2207 0.28729-0.14733 0.56053-0.38291 0.81836-0.70703h0.044922l0.32031 0.81641h1.1484v-4.0215c0-0.19258-0.017898-0.36931-0.048828-0.53516h0.53711v2.0762h1.1836v-2.0762h2.0879v-1.1836h-2.0879v-2.0996h-1.1836v2.0996h-1.3203c-0.41557-0.26993-0.96779-0.41406-1.6758-0.41406-0.42726 0-0.84049 0.048767-1.2383 0.14453-0.39042 0.095764-0.74814 0.22706-1.0723 0.39648l0.54297 1.1172c0.27993-0.12523 0.55992-0.22952 0.83984-0.31055 0.27993-0.088398 0.56667-0.13086 0.86133-0.13086s0.52348 0.073373 0.68555 0.2207c0.16943 0.14733 0.25391 0.37855 0.25391 0.69531v0.26562l-1.0508 0.033203c-0.89871 0.029466-1.5721 0.19842-2.0215 0.50781-0.2543 0.17093-0.42868 0.40219-0.53906 0.68164v-5.3555h-1.502v3.7344l0.042969 1.084c0.014733 0.36096 0.025837 0.72543 0.033203 1.0938h-0.033203l-3.4238-5.9121h-2.1113zm10.605 5.0938v0.49805c0 0.38306-0.12214 0.6809-0.36524 0.89453-0.24309 0.20626-0.54094 0.30859-0.89453 0.30859-0.23573 0-0.42689-0.051166-0.57422-0.1543-0.14733-0.1105-0.22266-0.29056-0.22266-0.54102 0-0.28729 0.10429-0.52047 0.31055-0.69727 0.20626-0.1768 0.57508-0.27238 1.1055-0.28711l0.64063-0.021484zm-4.8535 2.9062v8h1.6914v-2.8574l0.7168-0.51562 2.0957 3.373h1.9277l-2.8125-4.459 2.7891-3.541h-1.8809l-2.1641 2.7227-0.67188 0.94141v-3.6641h-1.6914zm6.9766 0.26953v2.0996h-2.0879v1.1816h2.0879v2.0781h1.1836v-2.0781h2.0879v-1.1816h-2.0879v-2.0996h-1.1836z" style="fill:#ffffff"/></svg>
