<?xml version="1.0" encoding="UTF-8" standalone="no"?>
<svg xmlns:dc="http://purl.org/dc/elements/1.1/" xmlns:cc="http://creativecommons.org/ns#" xmlns:rdf="http://www.w3.org/1999/02/22-rdf-syntax-ns#" xmlns:svg="http://www.w3.org/2000/svg" xmlns="http://www.w3.org/2000/svg" xmlns:sodipodi="http://sodipodi.sourceforge.net/DTD/sodipodi-0.dtd" xmlns:inkscape="http://www.inkscape.org/namespaces/inkscape" version="1.1" width="128" height="128" viewBox="0 0 128 128" overflow="visible" enable-background="new 0 0 128 128" xml:space="preserve"/>
	<path opacity="0.2" d="M9.585,65.314l45,45c0.574,0.575,1.43,0.745,2.18,0.434c0.749-0.31,1.234-1.035,1.234-1.848   c0,0,0-23.15,0-25c1.936,0,61,0,61,0c1.103,0,2-0.897,2-2V46c0-1.103-0.897-2-2-2c0,0-59.064,0-61,0c0-1.85,0-25.1,0-25.1   c0-0.813-0.485-1.538-1.236-1.848C56.761,17.051,56,16.9,56,16.9c-0.535,0-1.037,0.208-1.414,0.586l-45,45   C8.805,63.266,8.805,64.535,9.585,65.314z" id="path4"/>
	<path opacity="0.2" d="M10.292,64.607l45,45c0.285,0.286,0.716,0.372,1.09,0.217C56.755,109.67,57,109.305,57,108.9   c0,0,0-24.146,0-26c1.937,0,62,0,62,0c0.552,0,1-0.447,1-1V46c0-0.553-0.448-1-1-1c0,0-60.063,0-62,0c0-1.854,0-26.1,0-26.1   c0-0.404-0.244-0.77-0.617-0.924C56.257,17.926,56.128,17.9,56,17.9c-0.261,0-0.516,0.102-0.707,0.293l-45,45   C9.902,63.584,9.902,64.217,10.292,64.607z" id="path6"/>

		<linearGradient id="XMLID_5_" gradientUnits="userSpaceOnUse" x1="1065.3579" y1="32.765598" x2="1052.8593" y2="-75.723" gradientTransform="matrix(0,-1,1,0,87.0991,1120.8999)">
		<stop offset="0" style="stop-color:#d1a700;stop-opacity:1;" id="stop9"/>
		<stop offset="1" style="stop-color:#d9bd00;stop-opacity:1;" id="stop11"/>
	</linearGradient>
	<path fill="url(#XMLID_5_)" d="M10.292,63.607l45,45c0.285,0.286,0.716,0.372,1.09,0.217C56.755,108.67,57,108.305,57,107.9   c0,0,0-24.146,0-26c1.937,0,62,0,62,0c0.552,0,1-0.447,1-1V45c0-0.553-0.448-1-1-1c0,0-60.063,0-62,0c0-1.854,0-26.1,0-26.1   c0-0.404-0.244-0.77-0.617-0.924C56.257,16.926,56.128,16.9,56,16.9c-0.261,0-0.516,0.102-0.707,0.293l-45,45   C9.902,62.584,9.902,63.217,10.292,63.607z" id="path13" style="fill-opacity:1.0"/>

		<linearGradient id="XMLID_6_" gradientUnits="userSpaceOnUse" x1="1067.9419" y1="-22.4316" x2="1034.4423" y2="-11.1818" gradientTransform="matrix(0 -1 1 0 87.0991 1120.8999)">
		<stop offset="0" style="stop-color:#ccb621;stop-opacity:1;" id="stop16"/>
		<stop offset="1" style="stop-color:#c8bc00;stop-opacity:1;" id="stop18"/>
	</linearGradient>
	<polygon points="11,62.9 56,107.9 56,80.9 119,80.9 119,45 56,45 56,17.9  " id="polygon20" fill="url(#XMLID_6_)"/>
	<linearGradient id="XMLID_7_" gradientUnits="userSpaceOnUse" x1="74.5454" y1="37.4331" x2="92.5456" y2="93.1007">
		<stop offset="0" style="stop-color:#f2d300;stop-opacity:1;" id="stop23"/>
		<stop offset="1" style="stop-color:#ccb621;stop-opacity:1;" id="stop25"/>
	</linearGradient>
	<path d="m 56,17.9 -1,1 V 44 h 1 V 17.9 z M 118,45 V 79.9 H 55 v 27 l 1,1 v -27 h 63 V 45 h -1 z" id="path27" style="fill:url(#XMLID_7_)" inkscape:connector-curvature="0"/>

		<linearGradient id="XMLID_8_" gradientUnits="userSpaceOnUse" x1="1092.3228" y1="-53.999" x2="1053.8229" y2="-7.8332" gradientTransform="matrix(0 -1 1 0 87.0991 1120.8999)">
		<stop offset="0" style="stop-color:#eada9c;stop-opacity:1;" id="stop30"/>
		<stop offset="1" style="stop-color:#dcce55;stop-opacity:1;" id="stop32"/>
	</linearGradient>
	<path d="M62.887,65.369C85.333,60.666,119,59.999,119,59.999V45H56V17.9l-45,45l14.806,14.805   C25.805,77.705,40.442,70.072,62.887,65.369z" id="path34" fill="url(#XMLID_8_)"/>
</svg>
